<svg width="28" height="24" viewBox="0 0 28 24" fill="none" xmlns="http://www.w3.org/2000/svg">
<g clip-path="url(#clip0_8_2)">
<path fill-rule="evenodd" clip-rule="evenodd" d="M24.0905 0L23.774 4.48552L18.8502 9.39156L14.665 5.22143L19.5888 0.315388L24.0905 0ZM13.3989 14.8583L9.77646 18.4677L11.1481 19.8344L10.2337 20.7806L3.23489 13.842L4.18448 12.8959L5.55609 14.2976L9.17857 10.6882L13.3989 14.8583Z" fill="white"/>
<path d="M4.76507 16.3766L-3.05176e-05 21.1246L2.88599 24.0002L7.65108 19.2523L4.76507 16.3766Z" fill="white"/>
<path fill-rule="evenodd" clip-rule="evenodd" d="M3.90314 0L4.21966 4.48552L18.2524 18.4677L16.8456 19.8344L17.7952 20.7806L24.7588 13.842L23.8092 12.8959L22.4376 14.2976L8.40486 0.315388L3.90314 0Z" fill="white"/>
<path d="M23.235 16.3768L20.349 19.2524L25.1141 24.0004L28.0001 21.1248L23.235 16.3768Z" fill="white"/>
</g>
<defs>
<clipPath id="clip0_8_2">
<rect width="28" height="24" fill="white"/>
</clipPath>
</defs>
</svg>
