<svg width="30" height="30" viewBox="0 0 30 30" fill="none" xmlns="http://www.w3.org/2000/svg">
<path d="M14.1602 1.2988C14.5542 0.689416 15.4458 0.689415 15.8398 1.2988L19.297 6.64587C19.4715 6.91586 19.7653 7.08546 20.0864 7.10164L26.4457 7.42215C27.1705 7.45868 27.6162 8.23074 27.2855 8.87665L24.3834 14.5442C24.2368 14.8304 24.2368 15.1696 24.3834 15.4558L27.2855 21.1233C27.6162 21.7693 27.1705 22.5413 26.4457 22.5779L20.0864 22.8984C19.7653 22.9145 19.4715 23.0841 19.297 23.3541L15.8398 28.7012C15.4458 29.3106 14.5542 29.3106 14.1602 28.7012L10.703 23.3541C10.5285 23.0841 10.2347 22.9145 9.9136 22.8984L3.5543 22.5779C2.82955 22.5413 2.38379 21.7693 2.71454 21.1233L5.61662 15.4558C5.76316 15.1696 5.76316 14.8304 5.61662 14.5442L2.71454 8.87666C2.38379 8.23074 2.82954 7.45868 3.5543 7.42215L9.9136 7.10164C10.2347 7.08546 10.5285 6.91586 10.703 6.64587L14.1602 1.2988Z" fill="#C2D5D7"/>
<path d="M12.2706 19V18.233L15.1513 15.0795C15.4893 14.7102 15.7678 14.3892 15.9865 14.1165C16.2053 13.8409 16.3672 13.5824 16.4723 13.3409C16.5803 13.0966 16.6342 12.8409 16.6342 12.5739C16.6342 12.267 16.5604 12.0014 16.4126 11.777C16.2678 11.5526 16.0689 11.3793 15.8161 11.2571C15.5632 11.1349 15.2791 11.0739 14.9638 11.0739C14.6286 11.0739 14.3359 11.1435 14.0859 11.2827C13.8388 11.419 13.647 11.6108 13.5107 11.858C13.3771 12.1051 13.3104 12.3949 13.3104 12.7273H12.3047C12.3047 12.2159 12.4226 11.767 12.6584 11.3807C12.8942 10.9943 13.2152 10.6932 13.6214 10.4773C14.0305 10.2614 14.4893 10.1534 14.9979 10.1534C15.5092 10.1534 15.9624 10.2614 16.3572 10.4773C16.7521 10.6932 17.0618 10.9844 17.2862 11.3509C17.5107 11.7173 17.6229 12.125 17.6229 12.5739C17.6229 12.8949 17.5646 13.2088 17.4482 13.5156C17.3345 13.8196 17.1357 14.1591 16.8516 14.5341C16.5703 14.9062 16.1797 15.3608 15.6797 15.8977L13.7195 17.9943V18.0625H17.7763V19H12.2706Z" fill="black"/>
</svg>
