<svg width="30" height="30" viewBox="0 0 30 30" fill="none" xmlns="http://www.w3.org/2000/svg">
<path d="M14.2033 1.0504C14.6034 0.522841 15.3966 0.52284 15.7967 1.0504L21.387 8.42056C21.4421 8.49316 21.5068 8.5579 21.5794 8.61297L28.9496 14.2033C29.4772 14.6034 29.4772 15.3966 28.9496 15.7967L21.5794 21.387C21.5068 21.4421 21.4421 21.5068 21.387 21.5794L15.7967 28.9496C15.3966 29.4772 14.6034 29.4772 14.2033 28.9496L8.61297 21.5794C8.5579 21.5068 8.49316 21.4421 8.42056 21.387L1.0504 15.7967C0.522841 15.3966 0.52284 14.6034 1.0504 14.2033L8.42056 8.61297C8.49316 8.5579 8.5579 8.49316 8.61297 8.42056L14.2033 1.0504Z" fill="#BE9574"/>
<path d="M15.032 19.1193C14.4695 19.1193 13.968 19.0227 13.5277 18.8295C13.0902 18.6364 12.7422 18.3679 12.4837 18.0241C12.228 17.6776 12.0888 17.2756 12.0661 16.8182H13.1399C13.1626 17.0994 13.2592 17.3423 13.4297 17.5469C13.6001 17.7486 13.8232 17.9048 14.0987 18.0156C14.3743 18.1264 14.6797 18.1818 15.0149 18.1818C15.3899 18.1818 15.7223 18.1165 16.0121 17.9858C16.3018 17.8551 16.5291 17.6733 16.6939 17.4403C16.8587 17.2074 16.9411 16.9375 16.9411 16.6307C16.9411 16.3097 16.8615 16.027 16.7024 15.7827C16.5433 15.5355 16.3104 15.3423 16.0036 15.2031C15.6967 15.0639 15.3217 14.9943 14.8786 14.9943H14.1797V14.0568H14.8786C15.2251 14.0568 15.5291 13.9943 15.7905 13.8693C16.0547 13.7443 16.2607 13.5682 16.4084 13.3409C16.5589 13.1136 16.6342 12.8466 16.6342 12.5398C16.6342 12.2443 16.5689 11.9872 16.4382 11.7685C16.3075 11.5497 16.1229 11.3793 15.8842 11.2571C15.6484 11.1349 15.37 11.0739 15.049 11.0739C14.7479 11.0739 14.4638 11.1293 14.1967 11.2401C13.9325 11.348 13.7166 11.5057 13.549 11.7131C13.3814 11.9176 13.2905 12.1648 13.2763 12.4545H12.2536C12.2706 11.9972 12.4084 11.5966 12.6669 11.2528C12.9254 10.9062 13.2635 10.6364 13.6811 10.4432C14.1016 10.25 14.5632 10.1534 15.0661 10.1534C15.6058 10.1534 16.0689 10.2628 16.4553 10.4815C16.8416 10.6974 17.1385 10.983 17.3459 11.3381C17.5533 11.6932 17.657 12.0767 17.657 12.4886C17.657 12.9801 17.5277 13.3991 17.2692 13.7457C17.0135 14.0923 16.6655 14.3324 16.2251 14.4659V14.5341C16.7763 14.625 17.2067 14.8594 17.5163 15.2372C17.826 15.6122 17.9808 16.0767 17.9808 16.6307C17.9808 17.1051 17.8516 17.5312 17.593 17.9091C17.3374 18.2841 16.9879 18.5795 16.5447 18.7955C16.1016 19.0114 15.5973 19.1193 15.032 19.1193Z" fill="black"/>
</svg>
