<svg width="30" height="30" viewBox="0 0 30 30" fill="none" xmlns="http://www.w3.org/2000/svg">
<path d="M14.1182 1.64859C14.495 0.944118 15.505 0.944118 15.8818 1.64859L18.1147 5.82325C18.3396 6.24374 18.8301 6.44693 19.2865 6.30863L23.8174 4.93561C24.5819 4.70391 25.2961 5.41807 25.0644 6.18265L23.6914 10.7135C23.5531 11.1699 23.7563 11.6604 24.1767 11.8853L28.3514 14.1182C29.0559 14.495 29.0559 15.505 28.3514 15.8818L24.1767 18.1147C23.7563 18.3396 23.5531 18.8301 23.6914 19.2865L25.0644 23.8174C25.2961 24.5819 24.5819 25.2961 23.8174 25.0644L19.2865 23.6914C18.8301 23.5531 18.3396 23.7563 18.1147 24.1767L15.8818 28.3514C15.505 29.0559 14.495 29.0559 14.1182 28.3514L11.8853 24.1767C11.6604 23.7563 11.1699 23.5531 10.7135 23.6914L6.18265 25.0644C5.41807 25.2961 4.70391 24.5819 4.93561 23.8174L6.30863 19.2865C6.44693 18.8301 6.24374 18.3396 5.82325 18.1147L1.64859 15.8818C0.944118 15.505 0.944118 14.495 1.64859 14.1182L5.82325 11.8853C6.24374 11.6604 6.44693 11.1699 6.30863 10.7135L4.93561 6.18265C4.70391 5.41807 5.41807 4.70391 6.18265 4.93561L10.7135 6.30863C11.1699 6.44693 11.6604 6.24374 11.8853 5.82325L14.1182 1.64859Z" fill="#EBCD3A"/>
<path d="M16.1825 10.2727V19H15.1257V11.3807H15.0746L12.9439 12.7955V11.7216L15.1257 10.2727H16.1825Z" fill="black"/>
</svg>
