<svg width="24" height="24" viewBox="0 0 24 24" fill="none" xmlns="http://www.w3.org/2000/svg">
<g clip-path="url(#clip0_8_38)">
<path d="M23.5139 17.373L16.0949 2.532C15.3029 0.945 13.7729 0 11.9999 0C10.2269 0 8.69692 0.948 7.90492 2.532L0.488919 17.373C-0.225081 18.804 -0.150081 20.469 0.689919 21.828C1.52992 23.19 2.98492 24 4.58392 24H19.4189C21.0179 24 22.4729 23.187 23.3129 21.828C24.1529 20.469 24.2279 18.801 23.5139 17.373ZM12.0329 2.238C13.7399 2.238 15.1289 3.633 15.1289 5.349C15.1289 7.065 13.7399 8.46 12.0329 8.46C10.3259 8.46 8.93692 7.065 8.93692 5.349C8.93692 3.633 10.3259 2.238 12.0329 2.238ZM4.86592 22.023C3.15892 22.023 1.76992 20.628 1.76992 18.912C1.76992 17.196 3.15892 15.801 4.86592 15.801C6.57292 15.801 7.96192 17.196 7.96192 18.912C7.96192 20.628 6.57292 22.023 4.86592 22.023ZM5.32492 12C5.32492 10.284 6.71392 8.889 8.42092 8.889C10.1279 8.889 11.5169 10.284 11.5169 12C11.5169 13.716 10.1279 15.111 8.42092 15.111C6.71392 15.111 5.32492 13.716 5.32492 12ZM12.0209 22.023C10.3139 22.023 8.92492 20.628 8.92492 18.912C8.92492 17.196 10.3139 15.801 12.0209 15.801C13.7279 15.801 15.1169 17.196 15.1169 18.912C15.1169 20.628 13.7279 22.023 12.0209 22.023ZM12.4829 12C12.4829 10.284 13.8719 8.889 15.5789 8.889C17.2859 8.889 18.6749 10.284 18.6749 12C18.6749 13.716 17.2859 15.111 15.5789 15.111C13.8719 15.111 12.4829 13.716 12.4829 12ZM19.1369 22.023C17.4299 22.023 16.0409 20.628 16.0409 18.912C16.0409 17.196 17.4299 15.801 19.1369 15.801C20.8439 15.801 22.2329 17.196 22.2329 18.912C22.2329 20.628 20.8439 22.023 19.1369 22.023Z" fill="white"/>
<path d="M12.033 7.82998C13.392 7.82998 14.496 6.71698 14.496 5.34898C14.496 3.98098 13.392 2.86798 12.033 2.86798C10.674 2.86798 9.57001 3.98098 9.57001 5.34898C9.57001 6.71698 10.674 7.82998 12.033 7.82998Z" fill="white"/>
<path d="M10.887 12C10.887 13.368 9.783 14.478 8.424 14.478C7.065 14.478 5.961 13.368 5.961 12C5.961 10.632 7.065 9.51898 8.424 9.51898C9.783 9.51898 10.887 10.629 10.887 12Z" fill="white"/>
<path d="M18.042 12C18.042 13.368 16.938 14.478 15.579 14.478C14.22 14.478 13.116 13.368 13.116 12C13.116 10.632 14.22 9.51898 15.579 9.51898C16.938 9.51898 18.042 10.629 18.042 12Z" fill="white"/>
<path d="M4.86601 16.434C3.50701 16.434 2.40302 17.547 2.40302 18.915C2.40302 20.283 3.50701 21.396 4.86601 21.396C6.22501 21.396 7.32901 20.283 7.32901 18.915C7.32901 17.547 6.22501 16.434 4.86601 16.434Z" fill="white"/>
<path d="M12.021 16.434C10.662 16.434 9.55798 17.547 9.55798 18.915C9.55798 20.283 10.662 21.396 12.021 21.396C13.38 21.396 14.484 20.283 14.484 18.915C14.484 17.547 13.38 16.434 12.021 16.434Z" fill="white"/>
<path d="M19.137 16.434C17.778 16.434 16.674 17.547 16.674 18.915C16.674 20.283 17.778 21.396 19.137 21.396C20.496 21.396 21.6 20.283 21.6 18.915C21.6 17.547 20.496 16.434 19.137 16.434Z" fill="white"/>
</g>
<defs>
<clipPath id="clip0_8_38">
<rect width="24" height="24" fill="white"/>
</clipPath>
</defs>
</svg>
